<?xml version="1.0" encoding="UTF-8" standalone="no"?>
<svg
   version="1.0"
   width="1024.000000pt"
   height="1024.000000pt"
   viewBox="0 0 1024.000000 1024.000000"
   preserveAspectRatio="xMidYMid meet"
   id="svg7"
   sodipodi:docname="clocknotes-logo.svg"
   inkscape:label="Layer"
   inkscape:version="1.3.2 (091e20e, 2023-11-25, custom)"
   xmlns:inkscape="http://www.inkscape.org/namespaces/inkscape"
   xmlns:sodipodi="http://sodipodi.sourceforge.net/DTD/sodipodi-0.dtd"
   xmlns="http://www.w3.org/2000/svg"
   xmlns:svg="http://www.w3.org/2000/svg">
  <defs
     id="defs7" />
  <sodipodi:namedview
     id="namedview7"
     pagecolor="#ffffff"
     bordercolor="#000000"
     borderopacity="0.25"
     inkscape:showpageshadow="2"
     inkscape:pageopacity="0.0"
     inkscape:pagecheckerboard="0"
     inkscape:deskcolor="#d1d1d1"
     inkscape:document-units="pt"
     inkscape:zoom="0.70710678"
     inkscape:cx="630.73925"
     inkscape:cy="659.73062"
     inkscape:window-width="1920"
     inkscape:window-height="991"
     inkscape:window-x="-9"
     inkscape:window-y="-9"
     inkscape:window-maximized="1"
     inkscape:current-layer="svg7" />
  <path
     style="fill:#ff6600;fill-opacity:1;stroke-width:0.904194"
     d="m 224.24018,316.18551 v -54.08204 l 2.64077,-7.81243 c 8.2723,-24.47272 23.39657,-39.23859 46.63781,-45.53265 3.11306,-0.84306 10.3638,-1.22769 23.28301,-1.23508 l 18.76203,-0.0107 v 16.95533 16.95532 l -4.24526,3.163 c -5.06191,3.77146 -11.07587,12.28337 -13.83605,19.58301 -1.69118,4.4725 -1.92973,6.52605 -1.55873,13.4184 0.52761,9.80204 2.80847,16.35342 8.28203,23.78873 9.6041,13.04623 27.78525,19.32436 42.77616,14.77102 10.61406,-3.22392 21.11304,-11.46462 25.53942,-20.04601 2.56707,-4.97675 3.87758,-13.58522 3.46608,-22.76796 -0.33397,-7.45241 -0.72736,-9.06008 -3.47271,-14.19158 -1.70284,-3.18289 -6.05845,-8.93611 -9.67913,-12.78492 l -6.58307,-6.99784 v -15.92325 -15.92325 h 49.82982 49.82983 l -0.3336,16.84894 c -0.33296,16.81723 -0.33782,16.85158 -2.58567,18.25484 -4.367,2.72618 -11.88298,11.51831 -14.64829,17.13545 -4.82026,9.79135 -4.4603,24.09269 0.89272,35.46762 2.99875,6.3722 10.78928,14.08383 18.28495,18.09973 l 5.87726,3.14883 h 12.20662 c 11.38944,0 12.55744,-0.16437 17.44689,-2.45535 7.22484,-3.38523 15.28333,-11.63574 18.9726,-19.42469 2.79843,-5.90818 2.91296,-6.59495 2.91296,-17.46723 0,-10.90529 -0.10525,-11.53064 -2.89143,-17.17969 -1.59029,-3.22434 -5.76088,-9.07042 -9.26799,-12.99127 l -6.37656,-7.12884 v -16.15417 -16.15417 h 48.82649 48.82649 v 15.92325 15.92325 l -6.75552,7.18116 c -4.54933,4.83597 -7.87131,9.43882 -10.17218,14.09431 -3.30013,6.67735 -3.41667,7.23861 -3.41667,16.4541 0,9.02071 0.16839,9.88604 3.08824,15.87029 3.99424,8.18623 12.02641,16.30234 20.01056,20.21968 15.93533,7.81853 33.0538,5.10118 45.39515,-7.20592 9.72911,-9.70209 13.80155,-22.4476 11.57999,-36.24179 -1.50338,-9.33482 -3.87872,-13.78952 -11.56385,-21.68672 l -6.94589,-7.13757 -0.37601,-16.69702 -0.37601,-16.69702 h 48.48486 48.48486 v 16.77125 16.77124 l -6.16756,6.08249 c -9.03718,8.91253 -12.75262,17.66331 -12.79841,30.14347 -0.0558,15.20196 9.2015,29.67973 23.48694,36.73194 4.69317,2.31685 5.68552,2.45502 17.63179,2.45502 12.00284,0 12.89814,-0.12631 17.2796,-2.43784 12.02937,-6.34636 20.16565,-17.97242 22.15286,-31.65455 1.8372,-12.64925 -1.18596,-22.24046 -10.03446,-31.83521 -9.71681,-10.53629 -9.05363,-8.56775 -9.05363,-26.87425 v -16.15356 h 48.82649 48.82649 v 17.10595 17.10594 l -3.13851,1.93971 c -8.39642,5.18927 -16.69763,19.36602 -17.44345,29.78977 -1.2287,17.17269 7.7505,32.32127 23.95264,40.40987 6.64425,3.31701 7.4714,3.50537 15.1653,3.45354 13.7548,-0.0927 23.95351,-4.31841 32.0843,-13.29386 4.46993,-4.93428 8.43248,-13.98525 9.00064,-20.5586 1.38227,-15.99227 -2.73413,-27.36344 -13.52093,-37.35038 l -6.31544,-5.84713 v -16.3774 -16.37741 h 49.27858 49.2786 v 16.22948 16.22948 l -2.9789,2.27213 c -3.8061,2.90307 -11.60411,12.54463 -14.03464,17.35268 -2.61489,5.17273 -4.12669,14.81311 -3.41395,21.76989 0.93005,9.07775 3.60309,15.00865 9.70356,21.53007 10.25473,10.96232 18.66413,14.47016 33.22663,13.85991 10.9313,-0.45808 16.3745,-2.7828 24.6569,-10.53056 7.9559,-7.44231 11.7679,-14.61337 12.3171,-23.17022 0.9442,-14.71248 -3.0513,-26.07794 -12.8007,-36.41284 l -5.9873,-6.34682 V 223.8061 207.31639 l 20.1184,0.42793 c 14.8491,0.31584 21.5392,0.82029 25.5434,1.92604 19.8426,5.4794 33.9768,19.83039 42.1974,42.84478 2.3699,6.63478 3.3162,29.13313 3.4028,80.90652 l 0.062,36.84592 H 683.11876 224.24018 Z"
     id="path14"
     transform="scale(0.75)" />
  <path
     style="display:inline;fill:#ffe680;stroke-width:1.80839"
     d="m 284.82119,1176.433 c -7.52839,-0.7358 -15.90301,-2.9152 -20.66378,-5.3774 -12.69061,-6.5636 -25.9687,-20.3759 -32.69786,-34.0134 l -6.03194,-12.2245 -0.82226,-362.12984 -0.82225,-362.1298 h 458.67681 458.67679 l -0.4738,362.1298 -0.4739,362.12984 -6.8585,14.0338 c -7.6522,15.6579 -17.8531,25.3068 -35.6387,33.7101 l -9.9461,4.6993 -395.1329,0.2047 c -217.32309,0.1125 -400.82931,-0.3521 -407.79161,-1.0326 z m 444.28876,-82.306 c 108.81179,-16.4021 195.94982,-78.9564 243.10668,-174.52051 12.15167,-24.62555 21.30074,-51.15796 27.41523,-79.50448 4.48984,-20.81452 4.89274,-25.95615 4.82654,-61.59075 -0.084,-45.25948 -3.0342,-64.35371 -16.0532,-103.90227 C 952.95458,566.91848 863.36985,487.47942 749.57704,462.82867 c -28.88718,-6.25778 -74.44294,-9.18596 -98.55717,-6.33495 -83.29742,9.84823 -153.36692,45.92689 -207.45714,106.8193 -47.84771,53.86488 -73.55634,114.89895 -80.23572,190.48516 -5.67217,64.18839 14.22642,141.39134 50.88234,197.41418 39.06634,59.70684 99.65553,106.42274 167.39637,129.06714 19.23256,6.4291 50.28057,13.4385 67.60576,15.2628 17.22853,1.8142 63.96668,0.9863 79.89847,-1.4153 z"
     id="path8"
     transform="scale(0.75)" />
  <path
     d="m 245.2,97.7 c -1.8,0.9 -4.4,3.5 -5.7,5.8 -2.3,3.8 -2.5,5.2 -2.5,16.8 V 133 h -12.2 c -26.9,0 -42.6,5.8 -58.3,21.5 -5.8,5.8 -8.3,9.4 -11.9,16.7 -2.5,5.1 -5.4,12 -6.3,15.3 -1.7,5.7 -1.8,24.1 -2,326.5 -0.2,346.9 -0.5,329.2 5.1,344.4 3.7,10.3 8.4,17.4 17.7,26.7 7.1,7.1 10.1,9.3 18,13.1 5.2,2.5 12.3,5.4 15.9,6.4 6.3,1.8 17.9,1.9 302.5,2.2 209.6,0.2 298.5,0 304.5,-0.8 14.3,-1.9 23.7,-5.2 35.2,-12.7 16.6,-10.9 28.5,-29.6 31.7,-50 0.8,-5.2 1.1,-96.6 1.1,-325.7 0,-345.5 0.3,-325.6 -5.3,-339.6 -6.7,-16.5 -17,-27.9 -31.8,-35.3 -12.8,-6.4 -18.5,-7.7 -37.4,-8.3 l -16,-0.5 -0.5,-14.4 c -0.5,-13.6 -0.6,-14.5 -3,-17 -5.6,-6 -13.6,-7.1 -19.8,-2.7 -5.1,3.7 -6.2,7.5 -6.2,21.6 V 133 h -36.9 -36.8 l -0.7,-3.8 c -0.3,-2 -0.6,-8 -0.6,-13.2 0,-10.8 -1.5,-14.5 -7.2,-18 -6.3,-3.8 -14,-1.7 -19.2,5.3 -1.8,2.5 -2.1,4.5 -2.4,16.2 l -0.4,13.5 -36.8,0.2 -36.8,0.3 -0.6,-6.5 c -0.3,-3.6 -0.6,-9.7 -0.6,-13.5 0,-8.1 -2,-12.2 -7.2,-15.6 -4.1,-2.5 -11.7,-2.1 -15.6,0.8 -5,3.7 -6.1,7 -6.6,18.8 -0.2,6.1 -0.5,12 -0.5,13.2 L 549,133 h -37 -37 v -13.3 c 0,-11.4 -0.3,-13.6 -2,-16.5 -5.8,-9.5 -19.2,-9.5 -25,0 -1.7,2.9 -2,5.1 -2,16.5 V 133 l -37,0.2 -37,0.3 v -12 c 0,-10.5 -0.3,-12.6 -2.2,-16.5 -4.4,-8.6 -13.7,-11.6 -20.9,-6.7 -5.8,3.8 -6.9,7.4 -6.9,22.2 v 13 l -37.4,-0.3 -37.4,-0.2 -0.4,-13.5 c -0.3,-11.7 -0.6,-13.7 -2.4,-16.2 -5.1,-6.8 -12.4,-9 -19.2,-5.6 z m -8.2,70.6 v 13.3 l -2.9,1.7 c -4.3,2.5 -10.9,12.9 -11.7,18.3 -2.9,19.7 11.3,36.4 31,36.4 9.5,0 21.1,-7.4 25.9,-16.5 1.4,-2.8 2.2,-6.5 2.5,-12.1 0.4,-7.2 0.1,-8.9 -2.1,-13.7 -1.5,-3.2 -4.7,-7.6 -7.6,-10.4 L 267,180.4 V 167.7 155 h 37.5 37.5 v 13.5 c 0,8.3 -0.4,13.5 -1,13.5 -2.1,0 -9.3,7.6 -11.8,12.4 -2.1,4.2 -2.6,6.5 -2.6,12.6 0,12.4 5.8,21.9 16.9,27.8 4.3,2.3 6.2,2.7 13.5,2.6 9.8,0 14.5,-1.9 20.9,-8.3 5.5,-5.5 8.3,-12 8.6,-19.9 0.5,-9.1 -2.1,-15.6 -9.1,-23.1 L 372,180.2 V 167.6 155 h 37 37 v 12.4 12.4 l -5.8,5.9 c -13.2,13.1 -13.5,30.1 -0.8,42.9 15.4,15.3 39.3,11.2 48.4,-8.4 2.2,-4.6 2.7,-7.1 2.6,-13.2 0,-9.1 -2.9,-15.4 -9.7,-21.7 l -4.5,-4.2 -0.4,-13.1 -0.3,-13 36.8,0.2 36.8,0.3 v 12.8 12.9 l -4,3.5 c -13.8,11.8 -14.1,33.3 -0.6,45.2 6.9,6 11.1,7.6 20.5,7.6 7.3,0 9.2,-0.4 13.6,-2.7 9.4,-5 15.3,-14.1 16.2,-25.4 0.7,-9.1 -1.8,-15.4 -9.2,-22.9 -6.5,-6.7 -5.8,-4.1 -5.7,-23.5 l 0.1,-8 h 37 37 l -0.1,13.2 v 13.3 l -4.2,3 c -2.9,2.1 -5.3,5.2 -7.7,9.9 -3,5.9 -3.5,7.9 -3.5,13.5 0.1,12 7.2,22.4 18.7,27.6 5.4,2.5 7,2.7 13.3,2.2 11.8,-0.9 20.3,-6.5 25.2,-16.5 2.2,-4.6 2.8,-7 2.8,-13.2 0,-9.4 -3.3,-16.9 -10.3,-23.1 l -4.7,-4.1 V 167.9 155 h 37 37 c -1.05295,8.26456 2.42078,17.95255 -0.2,26 -1.8,0 -9.63889,8.67952 -12.1,13.4 -3.63903,6.97979 -3.79686,18.79845 -0.4,25.7 2.90314,5.89845 8.3972,11.40535 14.7,14.7 6.8972,3.60536 18.82059,3.83907 25.3,0.4 6.52082,-3.46105 13.6963,-8.22795 14.8,-14.8 l 2.2,-13.1 c 1.55823,-9.27857 -3.1,-15.7 -9.5,-22.1 0,0 -3.52429,-2.42726 -4.3,-4.3 -1.64554,-3.97268 0,-8.6 0,-12.9 0,-4.33333 0,-13 0,-13 h 13.3 c 20.4,0 30.5,3.2 40.2,12.8 5.4,5.3 8.9,11 12.3,20.1 2.5,6.6 2.5,6.6 2.9,48.3 L 857,278 H 512.5 168 v -41.1 -41 l 2.5,-7.5 c 5.2,-15.5 15.2,-25.6 30.4,-31 5.8,-2.1 8.5,-2.4 21.4,-2.4 H 237 Z m 619.7,397.2 c 0.1,165.6 -0.2,268.8 -0.8,273.5 -1,8.3 -6.8,21.2 -11.6,26.5 -7.3,7.8 -18.6,14.8 -28.3,17.6 -3.6,1 -65,1.3 -303,1.4 -330.5,0.1 -303.5,0.6 -316.6,-6.3 -11.9,-6.4 -19.4,-14.8 -25.2,-28.3 L 168.5,843.5 168,694 c -0.3,-82.2 -0.4,-204.7 -0.2,-272.1 l 0.2,-122.6 344.3,0.1 344.2,0.1 z"
     id="path1"
     style="display:inline;fill:#000000;stroke:none;stroke-width:0.1"
     inkscape:label="path1"
     sodipodi:nodetypes="scscssccccsccccccscscccccsccccscccccccscccccccsccscccsccscccccsccccscccccccccsscsccscccccccccccccccccccccccscccccccccccccccsccccccsssssssssscsccccccccccscccccccccccccccc" />
  <path
     d="m 494,342.3 c -0.3,0.2 -3.6,0.7 -7.4,1.1 -36.1,3.2 -77.5,18.2 -108.1,39.4 -29,20 -55.2,47.8 -72.5,76.9 -20.6,34.6 -31.6,72.3 -33.5,115.3 -2.3,50.2 15.8,108.2 46.8,149.6 36.1,48.3 86.4,80.4 145.3,92.8 12.8,2.6 16.3,3.1 34.8,4.6 10.6,0.9 34.3,0.1 43.6,-1.4 1.4,-0.2 4.9,-0.7 7.9,-1.1 2.9,-0.3 12.4,-2.4 21,-4.5 33.1,-8.4 61.4,-21.8 87.6,-41.5 29.5,-22.2 53.1,-51 69.3,-84.5 11.4,-23.6 16.9,-40.5 21.8,-67.5 2.4,-13.2 2.7,-17.5 2.7,-36 0,-25.2 -1.8,-40.4 -7.4,-62.2 C 735,480.7 714.7,444.9 683.8,413.9 670.9,400.9 661.6,393.1 648,383.8 619.5,364.5 585.8,351.3 548,344.9 537.1,343 495.2,341 494,342.3 Z m 47.3,29.7 c 30.5,4.9 54,13.2 79.7,27.8 31.5,18 62.3,50.2 80.7,84.2 10.2,18.7 20.3,50.7 22.8,72.1 1.4,11.8 1.7,37.6 0.5,48.1 -5.5,50.4 -27.8,96.2 -63.2,130.3 -19,18.3 -35.8,29.5 -61.8,41.2 -15.4,7 -18.9,8.2 -33.1,11.8 -14.9,3.8 -18.7,4.4 -37,6 -15.7,1.3 -33.6,0.9 -46.4,-1 -2.2,-0.4 -5.3,-0.9 -7,-1.1 -5.4,-0.9 -26.8,-6.4 -33,-8.6 -21.3,-7.3 -45.1,-20.1 -60,-32.2 -8,-6.4 -21.3,-18.6 -27,-24.6 -26.6,-27.9 -48.1,-71.6 -53.5,-108.5 -0.6,-4.4 -1.4,-9.1 -1.7,-10.5 -1.2,-5.8 -1.5,-35.4 -0.4,-45.2 6,-52.5 28.4,-98.8 63.6,-131.9 12.3,-11.5 17.2,-15.4 30.1,-24.1 12.7,-8.5 27.1,-16.1 40.3,-21.2 10.3,-4 32.3,-10.2 39.1,-11.1 2.5,-0.3 7,-1 10,-1.5 8.9,-1.6 10.7,-1.7 28.3,-1.9 12.5,-0.1 19.8,0.4 29,1.9 z"
     id="path2"
     style="display:inline;fill:#000000;stroke:none;stroke-width:0.1" />
  <path
     d="m 507,390 c -2.9,2.9 -3.2,5.3 -2.8,23.9 0.4,20.7 1.1,22 11.5,21.3 4.7,-0.4 5.4,-3.5 5.5,-23.8 v -18.8 l -2.6,-2.3 c -3.4,-2.9 -8.8,-3.1 -11.6,-0.3 z"
     id="path3"
     style="display:inline;fill:#000000;stroke:none;stroke-width:0.1" />
  <path
     d="m 632.5,453.9 c -1.7,1 -6.4,5.2 -10.5,9.3 -4.1,4.1 -14.5,14.1 -23,22.3 -8.5,8.2 -21.8,21 -29.5,28.5 -26.1,25.2 -41.6,39.5 -42.8,39.3 -0.7,-0.1 -3.9,-0.9 -7.1,-1.8 -6.5,-1.8 -11.1,-1.5 -17.6,1.1 -4.1,1.7 -4.3,1.6 -5.3,-0.2 -1.6,-2.8 -23.6,-24.4 -34.8,-34 -5.3,-4.6 -17.1,-15.5 -26.1,-24.3 C 419.3,478 416.5,476 410.9,476 c -9.4,0 -15.3,11.3 -10.1,19.3 1.8,2.6 32.8,33.6 53.9,53.8 9.1,8.6 24.3,21.4 26.3,22.1 0.7,0.2 0.6,1.6 -0.5,4 -2.1,5.3 -1.9,15.6 0.5,22 l 21.4,20.3 c 12.9,3.9 27.3,-1.1 36.6,-12.7 5.6,-7 8.4,-19.1 6.2,-27 l -1,-3.8 18.6,-17.7 c 10.3,-9.8 28.1,-27.1 39.7,-38.4 22.8,-22.4 38.9,-37.8 44.7,-42.8 6.8,-5.9 7.3,-16.2 1.1,-21 -3.4,-2.7 -11.6,-2.8 -15.8,-0.2 z"
     id="path4"
     style="display:inline;fill:#000000;stroke:none;stroke-width:0.1"
     sodipodi:nodetypes="csscccccccscccccccccccccc" />
  <path
     d="m 322.4,574 c -3.1,1.2 -5.4,4.9 -5.4,8.6 0,2.4 0.8,3.9 3.1,5.8 3,2.6 3.3,2.6 19,2.6 17.1,0 20.7,-0.8 23,-5.1 1.6,-3 0.2,-8.5 -2.7,-10.8 -2.2,-1.7 -4.1,-1.9 -18.7,-2 -8.9,0 -17.2,0.4 -18.3,0.9 z"
     id="path5"
     style="display:inline;fill:#000000;stroke:none;stroke-width:0.1" />
  <path
     d="m 666.9,574.4 c -5.7,3.2 -5.7,12.1 0.1,15.1 3.7,1.9 33.9,2.2 37.3,0.3 5.4,-2.8 6.5,-9.8 2.1,-13.9 -2.5,-2.3 -3.1,-2.4 -19.7,-2.7 -13.5,-0.2 -17.8,0.1 -19.8,1.2 z"
     id="path6"
     style="display:inline;fill:#000000;stroke:none;stroke-width:0.1" />
  <path
     d="m 510.4,728.7 c -1.2,0.2 -3,1.3 -4,2.5 -1.7,1.8 -1.9,3.9 -1.9,20.5 v 18.5 l 2.8,2.4 c 3.5,3 7.8,3.1 11.2,0.1 2.4,-2.1 2.5,-2.8 2.7,-12.7 0.3,-23.5 0,-26.9 -2.7,-29.5 -2.3,-2.4 -3.6,-2.7 -8.1,-1.8 z"
     id="path7"
     style="display:inline;fill:#000000;stroke:none;stroke-width:0.1" />
  <path
     id="path10-1"
     style="display:inline;fill:#d45500;stroke-width:0.738482"
     d="m 411.75001,671.37452 14.10937,13.04736 14.49463,-13.92187 c 8.4,-7.99999 23.79933,-22.90109 34.29932,-33.10108 10.39999,-10.19999 24.79952,-24.09942 31.99951,-30.89941 7.09999,-6.79999 13.5002,-13.29942 14.2002,-14.39941 3.69999,-6.2 -0.99913,-14.6001 -8.09912,-14.6001 -3.2,0 -4.79992,1.1002 -13.89991,9.70019 -17.39998,16.49999 -68.80079,66.29952 -77.80078,75.49952 -4.48601,4.6769 -8.42379,8.34158 -9.30322,8.6748 z M 517.40332,596.625 503.29395,583.57764 488.79932,597.49951 c -8.4,7.99999 -23.79933,22.90109 -34.29932,33.10108 -10.39999,10.19999 -24.79952,24.09942 -31.99951,30.89941 -7.09999,6.79999 -13.5002,13.29942 -14.2002,14.39941 -3.69999,6.2 0.99913,14.6001 8.09912,14.6001 3.2,0 4.79992,-1.1002 13.89991,-9.70019 17.39998,-16.49999 68.80079,-66.29952 77.80078,-75.49952 4.48601,-4.6769 8.42379,-8.34158 9.30322,-8.6748 z" />
</svg>
